/* XPM */
static char * pause_xpm[] = {
"10 10 22 1",
" 	c None",
".	c #131313",
"+	c #0F0F0F",
"@	c #090909",
"#	c #575757",
"$	c #101010",
"%	c #1E1E1E",
"&	c #040404",
"*	c #010101",
"=	c #4C4C4C",
"-	c #111111",
";	c #070707",
">	c #000000",
",	c #505050",
"'	c #141414",
")	c #080808",
"!	c #151515",
"~	c #4D4D4D",
"{	c #1D1D1D",
"]	c #0C0C0C",
"^	c #5E5E5E",
"/	c #292929",
".+@#  #@$%",
"&**=  =**-",
";>>,  ,>>'",
")>>,  ,>>!",
")>>,  ,>>!",
")>>,  ,>>!",
")>>,  ,>>!",
";>>,  ,>>'",
"&>>~  ~>>-",
"{.]^  ^]./"};
