/* XPM */
static char * play_xpm[] = {
"10 10 20 1",
" 	c None",
".	c #5A5A5A",
"+	c #1A1A1A",
"@	c #010101",
"#	c #3E3E3E",
"$	c #222222",
"%	c #000000",
"&	c #141414",
"*	c #323232",
"=	c #151515",
"-	c #0C0C0C",
";	c #363636",
">	c #2E2E2E",
",	c #2B2B2B",
"'	c #6F6F6F",
")	c #1E1E1E",
"!	c #676767",
"~	c #737373",
"{	c #0A0A0A",
"]	c #727272",
".         ",
"+@#       ",
"$%%&*     ",
"=%%%%-;   ",
"=%%%%%%%> ",
"&%%%%%%,' ",
"&%%%%)!   ",
"&%%,~     ",
"{+!       ",
"]         "};
