/* XPM */
static char * stop_xpm[] = {
"12 12 5 1",
" 	c None",
".	c #3C3C3C",
"+	c #282828",
"@	c #202020",
"#	c #000000",
"            ",
"            ",
"  .++++++.  ",
"  @######@  ",
"  +######+  ",
"  +######+  ",
"  +######+  ",
"  +######+  ",
"  @######@  ",
"  .++++++.  ",
"            ",
"            "};
